<?xml version="1.0" encoding="utf-8"?>
<!-- Generator: Adobe Illustrator 22.0.1, SVG Export Plug-In . SVG Version: 6.00 Build 0)  -->
<svg version="1.1" id="Layer_1" xmlns="http://www.w3.org/2000/svg" xmlns:xlink="http://www.w3.org/1999/xlink" x="0px" y="0px"
	 viewBox="0 0 28 28" style="enable-background:new 0 0 28 28;" xml:space="preserve">
<style type="text/css">
	.st0{fill:#E64652;}
</style>
<title>Artboard 10 copy 4</title>
<g>
	<path class="st0" d="M6,20.5h16c1.2,0,2.2-1,2.2-2.2H3.8C3.8,19.6,4.8,20.5,6,20.5z"/>
	<path class="st0" d="M20.6,12.1c-0.3-0.1-0.5-0.2-0.8-0.3c0,0.2-0.1,0.4-0.2,0.6l-1.5,1.5c-0.3,0.3-0.8,0.2-1-0.1
		c-0.2-0.3-0.2-0.7,0-0.9l1.5-1.5l0.1,0c-0.6-0.3-1.2-0.6-1.7-0.9c0,0.2-0.1,0.4-0.2,0.5l-1.5,1.5c-0.3,0.3-0.8,0.2-1-0.1
		c-0.2-0.3-0.2-0.7,0-0.9l1.5-1.5c0.1-0.1,0.1-0.1,0.2-0.1L13,7.6c-0.3-0.2-0.7-0.2-0.9,0c-1.5,1.3-1.8,1.3-2.9,1.3H8.9
		c-1.1,0-1.8-0.1-2.3-1.1C6.5,7.6,6.3,7.5,6,7.5c-1.2,0-2.2,1-2.2,2.2v7.3h20.3C24.2,14.7,22.7,12.7,20.6,12.1z"/>
</g>
</svg>
