<?xml version="1.0" standalone="no"?>
<!DOCTYPE svg PUBLIC "-//W3C//DTD SVG 20010904//EN"
 "http://www.w3.org/TR/2001/REC-SVG-20010904/DTD/svg10.dtd">
<svg version="1.0" xmlns="http://www.w3.org/2000/svg"
 width="700.000000pt" height="700.000000pt" viewBox="0 0 700.000000 700.000000"
 preserveAspectRatio="xMidYMid meet">
<metadata>
Created by potrace 1.11, written by Peter Selinger 2001-2013
</metadata>
<g transform="translate(0.000000,700.000000) scale(0.100000,-0.100000)"
fill="#000000" stroke="none">
<path d="M3078 5129 c-15 -4 -64 -38 -110 -76 -168 -141 -279 -214 -373 -248
-80 -28 -400 -40 -560 -21 -172 21 -265 79 -361 225 -56 85 -92 111 -161 115
-226 12 -451 -148 -537 -382 -21 -56 -21 -70 -24 -1024 l-3 -968 2539 0 2539
0 -3 83 c-2 66 -12 171 -19 197 -1 3 -5 21 -9 40 -16 73 -60 198 -97 272 -63
127 -128 218 -234 324 -141 141 -273 224 -465 292 -47 17 -122 44 -166 61
l-82 30 -6 -32 c-15 -77 -51 -123 -248 -318 -205 -205 -234 -226 -301 -216
-69 10 -109 39 -139 102 -18 37 -23 111 -9 146 11 31 394 419 413 419 7 0 -41
28 -107 61 -66 34 -159 83 -207 110 -48 27 -90 49 -92 49 -2 0 -8 -15 -11 -32
-4 -18 -16 -46 -27 -61 -40 -57 -413 -420 -445 -433 -86 -37 -179 5 -218 98
-17 42 -20 104 -6 141 14 35 430 449 444 441 30 -17 -26 27 -273 216 -146 112
-310 238 -365 280 -55 42 -114 84 -131 93 -37 19 -108 27 -146 16z"/>
<path d="M953 2417 c-4 -7 2 -77 12 -131 20 -101 124 -250 221 -317 53 -36
162 -78 224 -87 25 -3 974 -6 2110 -6 l2065 0 70 23 c113 37 217 110 288 202
54 70 116 250 105 305 -3 19 -58 19 -2547 19 -1398 0 -2545 -3 -2548 -8z"/>
</g>
</svg>
