<svg width="1130" height="1597" viewBox="0 0 1130 1597" fill="none" xmlns="http://www.w3.org/2000/svg">
<g opacity="0.3">
<path opacity="0.3" d="M369.088 794.201L0 631.163L35.9035 550.03L404.992 713.068L369.088 794.201Z" fill="#2DC7C6"/>
<path opacity="0.3" d="M440.88 631.936L379.189 604.686L232.718 297.502L145.776 494.018L74.5847 462.574L207.688 161.745L269.379 188.994L415.85 496.178L505.601 293.308L576.776 324.846L440.88 631.936Z" fill="#2DC7C6"/>
<path opacity="0.3" d="M612.443 244.17L243.355 81.1326L279.258 0L648.347 163.038L612.443 244.17Z" fill="#2DC7C6"/>
<path opacity="0.3" d="M653.728 1596.03L232.355 1558.19L270.231 1472.48L549.963 1506.02L338.598 1315.21L368.946 1246.65L652.466 1274.44L439.412 1090.27L476.42 1006.69L787.968 1292.74L757.162 1362.35L482.749 1339.17L684.519 1526.46L653.728 1596.03Z" fill="#2DC7C6"/>
<path opacity="0.3" d="M852.689 1139.34L555.155 821.575L587.792 747.822L1023.23 753.909L986.235 837.486L889.966 834.663L821.93 988.413L888.719 1057.8L852.689 1139.34ZM763.822 928.695L806.559 832.077L667.19 828.261L763.822 928.695Z" fill="#2DC7C6"/>
<path opacity="0.3" d="M1093.61 594.878L950.142 531.502L667.9 573.842L709.264 480.347L893.722 458.143L786.721 305.308L826.949 214.462L983.978 450.858L1129.01 514.944L1093.61 594.878Z" fill="#2DC7C6"/>
</g>
</svg>
