<svg width="1265" height="1504" viewBox="0 0 1265 1504" fill="none" xmlns="http://www.w3.org/2000/svg">
<g opacity="0.7">
<g opacity="0.3">
<g clip-path="url(#clip0)">
<path d="M292.662 1296.07L240.365 1260.21L138.327 1257.95L154.007 1213.42L215.024 1218.36L174.996 1153.73L192.371 1104.26L259.018 1221.43L307.287 1254.47L292.662 1296.07Z" fill="#CCD1D9"/>
<path d="M363.203 1104.21C355.812 1125.25 343.425 1140.15 326.043 1148.89C317.625 1153.2 308.394 1155.7 298.949 1156.21C289.505 1156.73 280.057 1155.25 271.218 1151.88C259.896 1147.92 249.492 1141.7 240.633 1133.6C231.734 1125.63 224.367 1116.09 218.892 1105.47C213.378 1094.52 210.123 1082.58 209.321 1070.35C208.348 1057.35 210.12 1044.3 214.519 1032.03C221.91 1010.99 234.297 996.098 251.679 987.354C260.118 983.029 269.375 980.534 278.844 980.032C288.313 979.53 297.782 981.032 306.632 984.441C317.949 988.406 328.351 994.614 337.215 1002.7C346.101 1010.68 353.467 1020.22 358.955 1030.83C364.458 1041.79 367.713 1053.74 368.529 1065.97C369.432 1078.95 367.618 1091.98 363.203 1104.21ZM327.376 1087.52C329.573 1081.61 330.359 1075.26 329.672 1068.99C328.986 1062.72 326.845 1056.69 323.422 1051.39C317.062 1040.36 306.974 1031.96 294.976 1027.72C286.32 1024.25 276.647 1024.33 268.056 1027.96C259.914 1031.55 254.05 1038.47 250.463 1048.71C248.293 1054.63 247.533 1060.97 248.244 1067.24C248.954 1073.5 251.115 1079.52 254.555 1084.8C260.873 1095.83 270.91 1104.24 282.866 1108.54C291.522 1112 301.195 1111.92 309.786 1108.3C317.926 1104.69 323.79 1097.76 327.376 1087.52Z" fill="#CCD1D9"/>
<path d="M420.825 940.213C414.104 959.421 404.306 972.674 391.431 979.971C378.557 987.268 363.878 988.01 347.395 982.196C339.346 979.26 331.711 975.293 324.68 970.395L255.979 923.196L270.652 881.394L342.111 930.285C346.227 933.207 350.704 935.584 355.431 937.355C358.314 938.561 361.418 939.144 364.542 939.068C367.665 938.992 370.737 938.257 373.557 936.912C378.833 934.206 382.768 929.16 385.362 921.772C386.784 918.109 387.441 914.194 387.294 910.267C387.147 906.341 386.199 902.485 384.508 898.939C381.292 891.727 374.524 884.615 364.206 877.604L289.954 826.527L304.651 784.723L384.537 839.384C402.175 851.545 414.308 864.525 420.936 878.325C429.242 895.659 429.206 916.288 420.825 940.213Z" fill="#CCD1D9"/>
<path d="M448.49 852.585L313.336 759.964L333.134 703.663C341.517 679.77 352.725 664.462 366.758 657.741C377.137 652.744 388.649 652.477 401.291 656.938C413.358 660.854 423.64 668.937 430.298 679.742C436.831 690.438 439.54 703.971 438.427 720.339L496.84 715.004L480.865 760.658L428.708 764.571L422.258 782.925L463.188 810.994L448.49 852.585ZM392.782 762.999L401.097 739.327C404.403 729.927 405.181 721.812 403.432 714.982C402.773 711.833 401.297 708.913 399.152 706.517C397.007 704.12 394.268 702.332 391.212 701.332C387.523 699.979 383.457 700.092 379.849 701.645C375.216 703.77 371.359 709.282 368.279 718.181L360.409 740.591L392.782 762.999Z" fill="#CCD1D9"/>
<path d="M537.312 603.201L383.649 559.899L398.716 517.008L486.034 544.709L417.413 462.639L430.012 426.796L518.812 451.573L449.693 372.122L465.508 327.126L584.211 470.225L571.167 507.329L483.931 484.361L550.449 566.489L537.312 603.201Z" fill="#CCD1D9"/>
<path d="M601.157 418.101L487.357 261.241L501.565 220.727L660.059 250.466L644.76 294.002L616.851 288.24L596.612 345.826L616.951 373.132L601.157 418.101ZM571.778 313.544L583.47 280.274L538.741 270.533L571.778 313.544Z" fill="#CCD1D9"/>
<path d="M676.707 203.073L624.404 167.16L522.386 165.065L538.066 120.537L599.083 125.473L559.041 60.7302L576.416 11.2594L643.063 128.425L691.326 161.42L676.707 203.073Z" fill="#CCD1D9"/>
</g>
</g>
<g opacity="0.3">
<g clip-path="url(#clip1)">
<path d="M437.662 1486.07L385.365 1450.21L283.327 1447.95L299.007 1403.42L360.024 1408.36L319.996 1343.73L337.371 1294.26L404.018 1411.43L452.287 1444.47L437.662 1486.07Z" fill="#CCD1D9"/>
<path d="M508.203 1294.21C500.812 1315.25 488.425 1330.15 471.043 1338.89C462.625 1343.2 453.394 1345.7 443.949 1346.21C434.505 1346.73 425.057 1345.25 416.218 1341.88C404.896 1337.92 394.492 1331.7 385.633 1323.6C376.734 1315.63 369.367 1306.09 363.892 1295.47C358.378 1284.52 355.123 1272.58 354.321 1260.35C353.348 1247.35 355.12 1234.3 359.519 1222.03C366.91 1200.99 379.297 1186.1 396.679 1177.35C405.118 1173.03 414.375 1170.53 423.844 1170.03C433.313 1169.53 442.782 1171.03 451.632 1174.44C462.949 1178.41 473.351 1184.61 482.215 1192.7C491.101 1200.68 498.467 1210.22 503.955 1220.83C509.458 1231.79 512.713 1243.74 513.529 1255.97C514.432 1268.95 512.618 1281.98 508.203 1294.21ZM472.376 1277.52C474.573 1271.61 475.359 1265.26 474.672 1258.99C473.986 1252.72 471.845 1246.69 468.422 1241.39C462.062 1230.36 451.974 1221.96 439.976 1217.72C431.32 1214.25 421.647 1214.33 413.056 1217.96C404.914 1221.55 399.05 1228.47 395.463 1238.71C393.293 1244.63 392.533 1250.97 393.244 1257.24C393.954 1263.5 396.115 1269.52 399.555 1274.8C405.873 1285.83 415.91 1294.24 427.866 1298.54C436.522 1302 446.195 1301.92 454.786 1298.3C462.926 1294.69 468.79 1287.76 472.376 1277.52Z" fill="#CCD1D9"/>
<path d="M565.825 1130.21C559.104 1149.42 549.306 1162.67 536.431 1169.97C523.557 1177.27 508.878 1178.01 492.395 1172.2C484.346 1169.26 476.711 1165.29 469.68 1160.39L400.979 1113.2L415.652 1071.39L487.111 1120.29C491.227 1123.21 495.704 1125.58 500.431 1127.36C503.314 1128.56 506.418 1129.14 509.542 1129.07C512.665 1128.99 515.737 1128.26 518.557 1126.91C523.833 1124.21 527.768 1119.16 530.362 1111.77C531.784 1108.11 532.441 1104.19 532.294 1100.27C532.147 1096.34 531.199 1092.49 529.508 1088.94C526.292 1081.73 519.524 1074.62 509.206 1067.6L434.954 1016.53L449.651 974.723L529.537 1029.38C547.175 1041.54 559.308 1054.52 565.936 1068.32C574.242 1085.66 574.206 1106.29 565.825 1130.21Z" fill="#CCD1D9"/>
<path d="M593.49 1042.59L458.336 949.964L478.134 893.663C486.517 869.77 497.725 854.462 511.758 847.741C522.137 842.744 533.649 842.477 546.291 846.938C558.358 850.854 568.64 858.937 575.298 869.742C581.831 880.438 584.54 893.971 583.427 910.339L641.84 905.004L625.865 950.658L573.708 954.571L567.258 972.925L608.188 1000.99L593.49 1042.59ZM537.782 952.999L546.097 929.327C549.403 919.927 550.181 911.812 548.432 904.982C547.773 901.833 546.297 898.913 544.152 896.517C542.007 894.12 539.268 892.332 536.212 891.332C532.523 889.979 528.457 890.092 524.849 891.645C520.216 893.77 516.359 899.282 513.279 908.181L505.409 930.591L537.782 952.999Z" fill="#CCD1D9"/>
<path d="M682.312 793.201L528.649 749.899L543.716 707.008L631.034 734.709L562.413 652.639L575.012 616.796L663.812 641.573L594.693 562.122L610.508 517.126L729.211 660.225L716.167 697.329L628.931 674.361L695.449 756.489L682.312 793.201Z" fill="#CCD1D9"/>
<path d="M746.157 608.101L632.357 451.241L646.565 410.727L805.059 440.466L789.76 484.002L761.851 478.24L741.612 535.826L761.951 563.132L746.157 608.101ZM716.778 503.544L728.47 470.274L683.741 460.533L716.778 503.544Z" fill="#CCD1D9"/>
<path d="M821.707 393.073L769.404 357.16L667.386 355.065L683.066 310.537L744.083 315.473L704.041 250.73L721.416 201.259L788.063 318.425L836.326 351.42L821.707 393.073Z" fill="#CCD1D9"/>
</g>
</g>
<g opacity="0.3">
<g clip-path="url(#clip2)">
<path d="M739.662 1338.07L687.365 1302.21L585.327 1299.95L601.007 1255.42L662.024 1260.36L621.996 1195.73L639.371 1146.26L706.018 1263.43L754.287 1296.47L739.662 1338.07Z" fill="#CCD1D9"/>
<path d="M810.203 1146.21C802.812 1167.25 790.425 1182.15 773.043 1190.89C764.625 1195.2 755.394 1197.7 745.949 1198.21C736.505 1198.73 727.057 1197.25 718.218 1193.88C706.896 1189.92 696.492 1183.7 687.633 1175.6C678.734 1167.63 671.367 1158.09 665.892 1147.47C660.378 1136.52 657.123 1124.58 656.321 1112.35C655.348 1099.35 657.12 1086.3 661.519 1074.03C668.91 1052.99 681.297 1038.1 698.679 1029.35C707.118 1025.03 716.375 1022.53 725.844 1022.03C735.313 1021.53 744.782 1023.03 753.632 1026.44C764.949 1030.41 775.351 1036.61 784.215 1044.7C793.101 1052.68 800.467 1062.22 805.955 1072.83C811.458 1083.79 814.713 1095.74 815.529 1107.97C816.432 1120.95 814.618 1133.98 810.203 1146.21ZM774.376 1129.52C776.573 1123.61 777.359 1117.26 776.672 1110.99C775.986 1104.72 773.845 1098.69 770.422 1093.39C764.062 1082.36 753.974 1073.96 741.976 1069.72C733.32 1066.25 723.647 1066.34 715.056 1069.96C706.914 1073.55 701.05 1080.47 697.463 1090.71C695.293 1096.63 694.533 1102.97 695.244 1109.24C695.954 1115.5 698.115 1121.52 701.555 1126.8C707.873 1137.83 717.91 1146.24 729.866 1150.54C738.522 1154.01 748.195 1153.92 756.786 1150.3C764.926 1146.69 770.79 1139.76 774.376 1129.52Z" fill="#CCD1D9"/>
<path d="M867.825 982.214C861.104 1001.42 851.306 1014.67 838.431 1021.97C825.557 1029.27 810.878 1030.01 794.395 1024.2C786.346 1021.26 778.711 1017.29 771.68 1012.4L702.979 965.196L717.652 923.395L789.111 972.286C793.227 975.208 797.704 977.584 802.431 979.356C805.314 980.561 808.418 981.145 811.542 981.068C814.665 980.992 817.737 980.258 820.558 978.913C825.833 976.207 829.768 971.16 832.362 963.773C833.784 960.11 834.441 956.195 834.294 952.268C834.147 948.341 833.199 944.486 831.508 940.939C828.292 933.727 821.524 926.616 811.206 919.605L736.954 868.528L751.651 826.723L831.537 881.385C849.175 893.545 861.308 906.525 867.936 920.325C876.242 937.659 876.206 958.289 867.825 982.214Z" fill="#CCD1D9"/>
<path d="M895.49 894.585L760.336 801.964L780.134 745.663C788.517 721.77 799.725 706.463 813.758 699.741C824.137 694.745 835.649 694.477 848.291 698.939C860.358 702.854 870.64 710.937 877.298 721.742C883.831 732.438 886.54 745.971 885.427 762.339L943.84 757.004L927.865 802.658L875.708 806.571L869.258 824.926L910.188 852.994L895.49 894.585ZM839.782 805L848.097 781.328C851.403 771.928 852.181 763.813 850.432 756.982C849.773 753.833 848.297 750.913 846.152 748.517C844.007 746.12 841.268 744.332 838.212 743.332C834.523 741.98 830.457 742.092 826.849 743.645C822.216 745.77 818.359 751.282 815.279 760.181L807.409 782.591L839.782 805Z" fill="#CCD1D9"/>
<path d="M984.312 645.202L830.649 601.899L845.716 559.008L933.034 586.71L864.413 504.639L877.012 468.796L965.812 493.573L896.693 414.122L912.508 369.127L1031.21 512.225L1018.17 549.33L930.931 526.362L997.449 608.489L984.312 645.202Z" fill="#CCD1D9"/>
<path d="M1048.16 460.101L934.357 303.241L948.565 262.727L1107.06 292.466L1091.76 336.002L1063.85 330.24L1043.61 387.826L1063.95 415.132L1048.16 460.101ZM1018.78 355.545L1030.47 322.275L985.741 312.534L1018.78 355.545Z" fill="#CCD1D9"/>
<path d="M1123.71 245.073L1071.4 209.16L969.386 207.065L985.066 162.537L1046.08 167.474L1006.04 102.73L1023.42 53.2596L1090.06 170.425L1138.33 203.42L1123.71 245.073Z" fill="#CCD1D9"/>
</g>
</g>
</g>
<defs>
<clipPath id="clip0">
<rect y="78.884" width="677" height="1243" transform="rotate(-6.69131 0 78.884)" fill="white"/>
</clipPath>
<clipPath id="clip1">
<rect x="145" y="268.884" width="677" height="1243" transform="rotate(-6.69131 145 268.884)" fill="white"/>
</clipPath>
<clipPath id="clip2">
<rect x="447" y="120.884" width="677" height="1243" transform="rotate(-6.69131 447 120.884)" fill="white"/>
</clipPath>
</defs>
</svg>
