<svg width="572" height="808" viewBox="0 0 572 808" fill="none" xmlns="http://www.w3.org/2000/svg">
<g opacity="0.5">
<path opacity="0.3" d="M187.033 401.677L0.362274 319.218L18.5209 278.185L205.192 360.643L187.033 401.677Z" fill="#2DC7C6"/>
<path opacity="0.3" d="M223.343 319.609L192.142 305.828L118.062 150.465L74.0905 249.856L38.0844 233.953L105.403 81.8045L136.604 95.5861L210.684 250.948L256.076 148.344L292.074 164.295L223.343 319.609Z" fill="#2DC7C6"/>
<path opacity="0.3" d="M310.113 123.492L123.442 41.0338L141.601 0L328.272 82.4585L310.113 123.492Z" fill="#2DC7C6"/>
<path opacity="0.3" d="M330.994 807.214L117.879 788.073L137.035 744.726L278.513 761.69L171.612 665.187L186.962 630.509L330.355 644.562L222.6 551.417L241.318 509.147L398.887 653.822L383.307 689.025L244.519 677.301L346.566 772.026L330.994 807.214Z" fill="#2DC7C6"/>
<path opacity="0.3" d="M431.621 576.236L281.139 415.522L297.646 378.221L517.872 381.3L499.163 423.57L450.474 422.142L416.064 499.903L449.843 534.995L431.621 576.236ZM386.675 469.7L408.29 420.834L337.802 418.904L386.675 469.7Z" fill="#2DC7C6"/>
<path opacity="0.3" d="M553.471 300.867L480.908 268.813L338.161 290.228L359.082 242.941L452.373 231.712L398.257 154.413L418.602 108.466L498.021 228.027L571.375 260.439L553.471 300.867Z" fill="#2DC7C6"/>
</g>
</svg>
