<svg width="1920" height="1082" viewBox="0 0 1920 1082" fill="none" xmlns="http://www.w3.org/2000/svg">
<path d="M960 1081L960 1" stroke="#ED516A"/>
<path d="M768 1081L768 1" stroke="#ED516A"/>
<path d="M1152 1081L1153 1" stroke="#ED516A"/>
<path d="M-0.000305176 541L1920 541" stroke="#ED516A"/>
<path d="M-0.000305176 361L1920 361" stroke="#ED516A"/>
<path d="M-0.000305176 271L1920 271" stroke="#ED516A"/>
<path d="M-0.000305176 68.5L1920 68.5" stroke="#ED516A"/>
<path d="M-0.000366211 1013.5H1920" stroke="#ED516A"/>
<path d="M-0.000305176 811L1920 811" stroke="#ED516A"/>
<path d="M-0.000305176 721L1920 721" stroke="#ED516A"/>
<path d="M480 1081L480 1" stroke="#ED516A"/>
<path d="M1440 1081L1441 1" stroke="#ED516A"/>
<path d="M1536 1081L1537 1" stroke="#ED516A"/>
<path d="M1600 1081L1601 1" stroke="#ED516A"/>
<path d="M1680 1081L1681 1" stroke="#ED516A"/>
<path d="M1800 1081L1801 1" stroke="#ED516A"/>
<path d="M1860 1081L1861 1" stroke="#ED516A"/>
<path d="M59.9996 1081L59.9997 1" stroke="#ED516A"/>
<path d="M240 1081L240 1" stroke="#ED516A"/>
<path d="M120 1081L120 1" stroke="#ED516A"/>
<path d="M320 1081L320 1" stroke="#ED516A"/>
<path d="M384 1081L384 1" stroke="#ED516A"/>
<path d="M-0.000346681 1081L960 1" stroke="#ED516A"/>
<path d="M-0.000300321 1081L480 1" stroke="#ED516A"/>
<path d="M1920 1081L960 1" stroke="#ED516A"/>
<path d="M1920 1081L1440 1" stroke="#ED516A"/>
<path d="M960 1081L1920 1" stroke="#ED516A"/>
<path d="M-0.000329517 1081L1920 1" stroke="#ED516A"/>
<path d="M-0.000409718 541L1920 1" stroke="#ED516A"/>
<path d="M-0.000409718 541L1920 1081" stroke="#ED516A"/>
<path d="M1440 1081L1920 1" stroke="#ED516A"/>
<path d="M960 1081L-0.000305176 1" stroke="#ED516A"/>
<path d="M1920.24 1080.57L-0.000305176 1" stroke="#ED516A"/>
<path d="M1920 541L-0.000305176 1" stroke="#ED516A"/>
<path d="M1920 541L-0.000305176 1081" stroke="#ED516A"/>
<path d="M480 1081L-0.000305176 1" stroke="#ED516A"/>
</svg>
