<?xml version="1.0" standalone="no"?>
<!DOCTYPE svg PUBLIC "-//W3C//DTD SVG 20010904//EN"
 "http://www.w3.org/TR/2001/REC-SVG-20010904/DTD/svg10.dtd">
<svg version="1.0" xmlns="http://www.w3.org/2000/svg"
 width="576.000000pt" height="576.000000pt" viewBox="0 0 576.000000 576.000000"
 preserveAspectRatio="xMidYMid meet">
<metadata>
Created by potrace 1.11, written by Peter Selinger 2001-2013
</metadata>
<g transform="translate(0.000000,576.000000) scale(0.100000,-0.100000)"
fill="#000000" stroke="none">
<path d="M700 3557 c0 -844 3 -1838 7 -2210 l6 -677 406 2 406 3 0 245 0 245
-171 3 -172 2 -4 1713 c-2 941 -3 1715 -1 1720 2 4 454 7 1004 7 816 0 999 -2
999 -13 0 -7 -23 -80 -51 -163 -28 -82 -294 -873 -591 -1759 -297 -885 -569
-1695 -604 -1800 -35 -104 -64 -193 -64 -197 0 -4 718 -8 1595 -8 l1595 0 0
2210 0 2210 -425 0 -425 0 0 -240 0 -240 188 -2 187 -3 3 -1717 2 -1718 -1025
0 c-564 0 -1025 4 -1025 9 0 8 1254 3699 1305 3844 l25 67 -1585 0 -1585 0 0
-1533z"/>
</g>
</svg>
